<?xml version="1.0" encoding="UTF-8"?>
<svg version="1.1" xmlns="http://www.w3.org/2000/svg" width="100" height="100">
<path d="M0 0 C3.64013016 3.28499551 7.33374789 6.62026362 7.765625 11.703125 C7.85749339 17.30709692 7.91523398 21.57242781 4.5625 26.3125 C1.875 28.6875 1.875 28.6875 -0.4375 30.3125 C0.2225 30.68375 0.8825 31.055 1.5625 31.4375 C3.5625 33.3125 3.5625 33.3125 3.8125 36.5 C3.73 37.428125 3.6475 38.35625 3.5625 39.3125 C10.86861314 39.19652995 13.9839844 37.5469906 19.48046875 32.83984375 C21.5625 31.3125 21.5625 31.3125 25.0625 30.8125 C27.5625 31.3125 27.5625 31.3125 28.5625 32.3125 C28.65093793 34.76080426 28.67778752 37.18070599 28.66015625 39.62890625 C28.6587413 40.35996078 28.65732635 41.09101532 28.65586853 41.84422302 C28.65025408 44.18785632 28.63769922 46.53139539 28.625 48.875 C28.61998686 50.46028508 28.61542363 52.04557166 28.61132812 53.63085938 C28.60027997 57.5247761 28.58300572 61.41862205 28.5625 65.3125 C20.87109375 65.49951172 20.87109375 65.49951172 18.09375 63.81640625 C17.4234375 63.17574219 16.753125 62.53507812 16.0625 61.875 C11.81069156 58.20735307 9.1324578 57.41377196 3.5625 57.3125 C3.60375 58.59125 3.645 59.87 3.6875 61.1875 C3.7578125 63.3671875 3.7578125 63.3671875 3.5625 65.3125 C1.5625 67.3125 1.5625 67.3125 -1.2578125 67.5078125 C-2.34835938 67.48460938 -3.43890625 67.46140625 -4.5625 67.4375 C-5.65820312 67.41945313 -6.75390625 67.40140625 -7.8828125 67.3828125 C-8.72585937 67.35960938 -9.56890625 67.33640625 -10.4375 67.3125 C-10.375625 68.075625 -10.31375 68.83875 -10.25 69.625 C-10.4375 72.3125 -10.4375 72.3125 -13.4375 75.3125 C-11.7875 79.6025 -10.1375 83.8925 -8.4375 88.3125 C-11.7375 88.3125 -15.0375 88.3125 -18.4375 88.3125 C-20.0875 84.6825 -21.7375 81.0525 -23.4375 77.3125 C-25.02721965 79.69707948 -26.30491593 81.9429124 -27.5625 84.5 C-28.18125 85.758125 -28.8 87.01625 -29.4375 88.3125 C-32.4075 88.3125 -35.3775 88.3125 -38.4375 88.3125 C-37.78330901 83.24251981 -35.5828591 78.89259223 -33.4375 74.3125 C-34.9225 73.8175 -34.9225 73.8175 -36.4375 73.3125 C-36.4375 71.3325 -36.4375 69.3525 -36.4375 67.3125 C-37.49710938 67.33570312 -38.55671875 67.35890625 -39.6484375 67.3828125 C-41.0364513 67.40156944 -42.4244727 67.41976972 -43.8125 67.4375 C-44.51117188 67.45425781 -45.20984375 67.47101563 -45.9296875 67.48828125 C-47.76647486 67.50594267 -49.60351963 67.41553261 -51.4375 67.3125 C-54.93283221 63.81716779 -53.7762882 58.63464963 -53.80859375 53.90820312 C-53.80843262 53.16449463 -53.80827148 52.42078613 -53.80810547 51.65454102 C-53.81247731 49.38676803 -53.84878459 47.12094381 -53.88671875 44.85351562 C-53.89258722 43.41406916 -53.89655641 41.97461345 -53.8984375 40.53515625 C-53.90665527 39.22297119 -53.91487305 37.91078613 -53.92333984 36.55883789 C-53.4375 33.3125 -53.4375 33.3125 -51.40869141 31.36108398 C-50.75819824 31.01505127 -50.10770508 30.66901855 -49.4375 30.3125 C-50.241875 29.384375 -51.04625 28.45625 -51.875 27.5 C-55.36729657 23.47042703 -55.7906913 19.7850931 -55.71484375 14.59375 C-55.1223301 9.72011657 -52.28411748 7.06067359 -48.75 3.9375 C-44.46516363 1.8355048 -41.12572293 1.60674601 -36.4375 2.3125 C-32.81732251 3.7203468 -29.8587069 5.21873562 -27.4375 8.3125 C-27.4375 8.9725 -27.4375 9.6325 -27.4375 10.3125 C-26.7775 10.3125 -26.1175 10.3125 -25.4375 10.3125 C-25.375625 9.77625 -25.31375 9.24 -25.25 8.6875 C-23.80746699 4.47086505 -21.11172061 1.14259933 -17.10546875 -0.84375 C-11.30846902 -2.67706177 -5.46316935 -2.6819195 0 0 Z M-26.4375 21.3125 C-26.85 22.22 -27.2625 23.1275 -27.6875 24.0625 C-29.4375 27.3125 -29.4375 27.3125 -33.4375 31.3125 C-27.8275 31.3125 -22.2175 31.3125 -16.4375 31.3125 C-18.0875 29.9925 -19.7375 28.6725 -21.4375 27.3125 C-22.80571051 25.33619593 -24.14701192 23.34040984 -25.4375 21.3125 C-25.7675 21.3125 -26.0975 21.3125 -26.4375 21.3125 Z " fill="#79838C" transform="translate(63.4375,5.6875)"/>
<path d="M0 0 C3.64013016 3.28499551 7.33374789 6.62026362 7.765625 11.703125 C7.85749339 17.30709692 7.91523398 21.57242781 4.5625 26.3125 C-1.27211971 31.57788852 -5.27235804 31.65705848 -13.00390625 31.59375 C-17.56306156 31.22030383 -19.23308226 30.51691774 -22.4375 27.3125 C-24.3125 24.5625 -24.3125 24.5625 -25.4375 22.3125 C-26.015 23.240625 -26.5925 24.16875 -27.1875 25.125 C-29.26521662 28.06843187 -30.39174209 29.54013917 -33.4375 31.3125 C-38.70622903 32.07424396 -44.64780603 32.52736673 -49.6171875 30.36328125 C-53.4758923 27.32047174 -55.12136422 23.97495603 -55.6875 19.20703125 C-55.9811266 13.72906 -55.18344414 10.55133153 -51.4375 6.3125 C-47.24772404 2.60990729 -44.04586292 1.72847784 -38.6171875 1.984375 C-34.11751674 2.66174479 -30.25253462 4.71551132 -27.4375 8.3125 C-27.4375 8.9725 -27.4375 9.6325 -27.4375 10.3125 C-26.7775 10.3125 -26.1175 10.3125 -25.4375 10.3125 C-25.375625 9.77625 -25.31375 9.24 -25.25 8.6875 C-23.80746699 4.47086505 -21.11172061 1.14259933 -17.10546875 -0.84375 C-11.30846902 -2.67706177 -5.46316935 -2.6819195 0 0 Z " fill="#58646D" transform="translate(63.4375,5.6875)"/>
<path d="M0 0 C8.58 0 17.16 0 26 0 C26 1.65 26 3.3 26 5 C25.01 5.99 24.02 6.98 23 8 C25.475 14.435 25.475 14.435 28 21 C24.7 21 21.4 21 18 21 C16.35 17.37 14.7 13.74 13 10 C11.41028035 12.38457948 10.13258407 14.6304124 8.875 17.1875 C8.25625 18.445625 7.6375 19.70375 7 21 C4.03 21 1.06 21 -2 21 C-1.34580901 15.93001981 0.8546409 11.58009223 3 7 C2.01 6.67 1.02 6.34 0 6 C0 4.02 0 2.04 0 0 Z " fill="#67737E" transform="translate(27,73)"/>
<path d="M0 0 C9.57 0 19.14 0 29 0 C29 3.96 29 7.92 29 12 C19.43 12 9.86 12 0 12 C0 8.04 0 4.08 0 0 Z " fill="#455A64" transform="translate(25,48)"/>
<path d="M0 0 C8.58 0 17.16 0 26 0 C26 1.65 26 3.3 26 5 C24 7 24 7 21.67749023 7.24291992 C20.73075439 7.23881104 19.78401855 7.23470215 18.80859375 7.23046875 C17.78185547 7.22853516 16.75511719 7.22660156 15.69726562 7.22460938 C14.62154297 7.21236328 13.54582031 7.20011719 12.4375 7.1875 C11.35791016 7.18685547 10.27832031 7.18621094 9.16601562 7.18554688 C1.14014598 7.14014598 1.14014598 7.14014598 0 6 C0 4.02 0 2.04 0 0 Z " fill="#57636E" transform="translate(27,73)"/>
<path d="M0 0 C2.64 0 5.28 0 8 0 C8 5.94 8 11.88 8 18 C5.36 18 2.72 18 0 18 C0 12.06 0 6.12 0 0 Z " fill="#57636E" transform="translate(67,45)"/>
<path d="M0 0 C2.4375 0.1875 2.4375 0.1875 3.4375 1.1875 C3.625 3.625 3.625 3.625 3.4375 6.1875 C2.7775 6.8475 2.1175 7.5075 1.4375 8.1875 C-1.1875 7.8125 -1.1875 7.8125 -3.5625 7.1875 C-4.1875 4.8125 -4.1875 4.8125 -4.5625 2.1875 C-2.5625 0.1875 -2.5625 0.1875 0 0 Z " fill="#BAC4C7" transform="translate(54.5625,16.8125)"/>
<path d="M0 0 C2.625 0.375 2.625 0.375 5 1 C5.625 3.375 5.625 3.375 6 6 C5.34 6.66 4.68 7.32 4 8 C1.375 7.625 1.375 7.625 -1 7 C-1.625 4.625 -1.625 4.625 -2 2 C-1.34 1.34 -0.68 0.68 0 0 Z " fill="#BDC6C9" transform="translate(21,19)"/>
</svg>
